# xmcd CD database file
#
# Track frame offsets:
#	150
#	13416
#	25410
#	37736
#	52141
#	66097
#	78941
#	92975
#	106873
#	118496
#	131972
#	146651
#	160255
#	173062
#	186784
#	200165
#	212144
#	223818
#
# Disc length: 3158 seconds
#
# Revision: 0
# Processed by: cddbd v1.5.1PL2 Copyright (c) Steve Scherf et al.
# Submitted via: CDex 1.51
#
DISCID=180c5412
DTITLE=Mel Tormé - Vocal Jazz
DYEAR=2001
DGENRE=Jazz
TTITLE0=What Is This Thing Called Love
TTITLE1=Born To Be Blue
TTITLE2=Night And Day
TTITLE3=You're Driving Me Crazy
TTITLE4=Try A Little Tenderness
TTITLE5=It Happened In Monterrey
TTITLE6=Guilty
TTITLE7=For You, For Me, For Evermore
TTITLE8=And So To Bed
TTITLE9=A Stranger In Town
TTITLE10=Get Out Of Town
TTITLE11=Willow Road
TTITLE12=Day By Day
TTITLE13=It's Dreamtime
TTITLE14=I Got The Sun In The Morning
TTITLE15=Changing My Tune
TTITLE16=Don't You Believe It, Dear
TTITLE17=Makin' Whoopee
EXTD=YEAR: 2001
EXTT0=
EXTT1=
EXTT2=
EXTT3=
EXTT4=
EXTT5=
EXTT6=
EXTT7=
EXTT8=
EXTT9=
EXTT10=
EXTT11=
EXTT12=
EXTT13=
EXTT14=
EXTT15=
EXTT16=
EXTT17=
PLAYORDER=
